<svg width="18" height="18" viewBox="0 0 18 18" fill="none" xmlns="http://www.w3.org/2000/svg">
<path d="M15.6003 5.84719C16.3809 7.4797 16.5291 9.34349 16.0163 11.0788C15.5035 12.8142 14.366 14.2981 12.8235 15.2441C11.281 16.1901 9.44267 16.5312 7.66343 16.2016C5.88418 15.872 4.29009 14.895 3.18884 13.4591C2.08758 12.0233 1.55722 10.2304 1.70012 8.42655C1.84301 6.62268 2.64903 4.93567 3.96261 3.69113C5.27619 2.44658 7.00421 1.73272 8.81317 1.68733C10.6221 1.64193 12.3838 2.26822 13.7581 3.44531L15.3521 1.85062C15.4577 1.74508 15.6008 1.68578 15.7501 1.68578C15.8993 1.68578 16.0425 1.74508 16.1481 1.85062C16.2536 1.95617 16.3129 2.09933 16.3129 2.24859C16.3129 2.39786 16.2536 2.54101 16.1481 2.64656L9.39805 9.39656C9.2925 9.50211 9.14935 9.56141 9.00008 9.56141C8.85081 9.56141 8.70766 9.50211 8.60211 9.39656C8.49656 9.29101 8.43727 9.14786 8.43727 8.99859C8.43727 8.84933 8.49656 8.70617 8.60211 8.60062L10.5512 6.65156C10.023 6.30222 9.39229 6.14137 8.76128 6.19506C8.13027 6.24874 7.53584 6.51382 7.07423 6.94738C6.61262 7.38094 6.31085 7.9576 6.21776 8.58402C6.12467 9.21043 6.24572 9.84993 6.5613 10.399C6.87689 10.948 7.36855 11.3745 7.95668 11.6094C8.54481 11.8442 9.195 11.8737 9.80198 11.6931C10.409 11.5124 10.9372 11.1322 11.3012 10.614C11.6652 10.0958 11.8437 9.46985 11.8077 8.83758C11.8035 8.76371 11.8139 8.68975 11.8384 8.61991C11.8628 8.55007 11.9007 8.48573 11.95 8.43056C11.9993 8.37539 12.059 8.33047 12.1257 8.29836C12.1923 8.26626 12.2647 8.24759 12.3385 8.24344C12.4877 8.23505 12.6341 8.28626 12.7455 8.38582C12.8007 8.43511 12.8456 8.49479 12.8777 8.56145C12.9098 8.6281 12.9285 8.70043 12.9327 8.7743C12.9839 9.66922 12.7283 10.5549 12.2081 11.2848C11.6878 12.0148 10.9341 12.5454 10.0714 12.7889C9.20874 13.0325 8.28879 12.9744 7.46361 12.6243C6.63843 12.2741 5.95741 11.6529 5.53312 10.8633C5.10884 10.0737 4.96667 9.16292 5.13012 8.28156C5.29358 7.4002 5.75287 6.60099 6.43208 6.01603C7.1113 5.43106 7.96978 5.09536 8.86563 5.06441C9.76149 5.03345 10.6411 5.30909 11.3591 5.84578L12.9587 4.24617C11.7864 3.2729 10.2959 2.76705 8.77343 2.82577C7.25094 2.88449 5.80383 3.50364 4.71003 4.56431C3.61622 5.62498 2.95286 7.05237 2.84735 8.57233C2.74183 10.0923 3.20161 11.5977 4.13837 12.7993C5.07512 14.0009 6.42281 14.8141 7.92258 15.0826C9.42235 15.3511 10.9685 15.0561 12.2639 14.2541C13.5594 13.4521 14.5129 12.1998 14.9413 10.7377C15.3698 9.27551 15.2428 7.70663 14.585 6.33234C14.5207 6.1977 14.5125 6.04302 14.5622 5.90233C14.6119 5.76163 14.7154 5.64644 14.8501 5.58211C14.9847 5.51777 15.1394 5.50956 15.2801 5.55927C15.4208 5.60898 15.536 5.71255 15.6003 5.84719Z" fill="#FFB84D"/>
</svg>
