<svg width="20" height="20" viewBox="0 0 20 20" fill="none" xmlns="http://www.w3.org/2000/svg">
<path d="M12.4543 1.04167C11.3147 1.04165 10.396 1.04163 9.67359 1.13877C8.92351 1.23962 8.29191 1.45536 7.79032 1.95696C7.35287 2.3944 7.13183 2.93197 7.01581 3.56362C6.90307 4.17742 6.8815 4.92858 6.87647 5.82986C6.87456 6.17502 7.15282 6.4564 7.49799 6.45832C7.84317 6.46025 8.12454 6.18198 8.12646 5.83682C8.13153 4.92557 8.1552 4.27967 8.24524 3.78946C8.332 3.31712 8.47134 3.04372 8.67417 2.84084C8.90484 2.61021 9.22867 2.45983 9.84009 2.37762C10.4696 2.29299 11.3038 2.29167 12.5 2.29167H13.3333C14.5295 2.29167 15.3638 2.29299 15.9933 2.37762C16.6048 2.45983 16.9285 2.61021 17.1592 2.84084C17.3898 3.07147 17.5402 3.39529 17.6224 4.00677C17.707 4.63622 17.7083 5.47049 17.7083 6.66667V13.3333C17.7083 14.5295 17.707 15.3637 17.6224 15.9932C17.5402 16.6047 17.3898 16.9285 17.1592 17.1592C16.9285 17.3898 16.6048 17.5402 15.9933 17.6224C15.3638 17.707 14.5295 17.7083 13.3333 17.7083H12.5C11.3038 17.7083 10.4696 17.707 9.84009 17.6224C9.22867 17.5402 8.90484 17.3898 8.67417 17.1592C8.47134 16.9562 8.332 16.6829 8.24524 16.2106C8.1552 15.7203 8.13153 15.0744 8.12646 14.1632C8.12454 13.818 7.84317 13.5397 7.49799 13.5417C7.15282 13.5436 6.87456 13.825 6.87647 14.1702C6.8815 15.0714 6.90307 15.8226 7.01581 16.4363C7.13183 17.068 7.35287 17.6056 7.79032 18.0431C8.29191 18.5447 8.92351 18.7604 9.67359 18.8612C10.396 18.9583 11.3147 18.9583 12.4543 18.9583H13.3791C14.5188 18.9583 15.4373 18.9583 16.1598 18.8612C16.9099 18.7604 17.5414 18.5447 18.0431 18.0431C18.5447 17.5414 18.7604 16.9099 18.8613 16.1598C18.9584 15.4373 18.9583 14.5187 18.9583 13.3791V6.62094C18.9583 5.48128 18.9584 4.56268 18.8613 3.84021C18.7604 3.09012 18.5447 2.45856 18.0431 1.95696C17.5414 1.45536 16.9099 1.23962 16.1598 1.13877C15.4373 1.04163 14.5188 1.04165 13.3791 1.04167H12.4543Z" fill="#FF6B6B"/>
<path d="M12.4998 9.375C12.845 9.375 13.1248 9.65483 13.1248 10C13.1248 10.3452 12.845 10.625 12.4998 10.625H3.35604L4.98991 12.0255C5.252 12.2501 5.28235 12.6447 5.0577 12.9067C4.83307 13.1688 4.4385 13.1992 4.17643 12.9745L1.25976 10.4745C1.12123 10.3558 1.0415 10.1824 1.0415 10C1.0415 9.81758 1.12123 9.64417 1.25976 9.5255L4.17643 7.02547C4.4385 6.80083 4.83307 6.83118 5.0577 7.09326C5.28235 7.35533 5.252 7.7499 4.98991 7.97453L3.35604 9.375H12.4998Z" fill="#FF6B6B"/>
</svg>
