<svg width="34" height="34" viewBox="0 0 34 34" fill="none" xmlns="http://www.w3.org/2000/svg">
<g clip-path="url(#clip0_41_1969)">
<path d="M12.8916 1.43409C13.0632 1.45202 13.2301 1.50418 13.3818 1.58643C13.5334 1.66866 13.6678 1.77964 13.7764 1.91358C13.885 2.04759 13.9656 2.2023 14.0146 2.36768C14.0637 2.5329 14.0804 2.70604 14.0625 2.87745C14.0446 3.04907 13.9924 3.21598 13.9102 3.36768C13.8279 3.51928 13.717 3.65359 13.583 3.76221C13.4492 3.87066 13.2949 3.95039 13.1299 3.99952L13.1309 4.00049C10.3374 4.84615 7.88814 6.56494 6.14355 8.90479C4.39897 11.2447 3.45065 14.0828 3.4375 17.0015C3.43833 19.1294 3.93971 21.2273 4.90137 23.1255C5.86328 25.0241 7.25887 26.6698 8.97461 27.9292C10.6905 29.1887 12.6795 30.0269 14.7793 30.3755C16.8789 30.724 19.0309 30.5734 21.0615 29.936C23.0922 29.2986 24.9449 28.1925 26.4688 26.7065C27.9926 25.2206 29.1457 23.3964 29.834 21.3823C30.5223 19.3682 30.7264 17.2197 30.4307 15.1118C30.1349 13.0041 29.3477 10.9955 28.1318 9.24854L28.124 9.2378C27.9467 8.95216 27.8861 8.60901 27.9541 8.27979C28.0222 7.95048 28.2141 7.65923 28.4902 7.46729C28.7664 7.27534 29.1061 7.19666 29.4385 7.24756C29.7293 7.29212 29.9953 7.43344 30.1953 7.646L30.2773 7.74073L30.2842 7.75049V7.75147C32.1796 10.4628 33.1935 13.6923 33.1875 17.0005C33.1867 20.0024 32.3513 22.9451 30.7744 25.4995C29.1973 28.0541 26.9405 30.1204 24.2568 31.4663C21.5732 32.8122 18.5677 33.3844 15.5771 33.1206C12.5868 32.8567 9.72867 31.7669 7.32227 29.9722C4.9157 28.1772 3.05571 25.7478 1.9502 22.9565C0.844765 20.1653 0.536632 17.1214 1.06152 14.1655C1.58646 11.2098 2.92313 8.45812 4.92188 6.21827C6.92073 3.97836 9.50359 2.3386 12.3809 1.48194H12.3818C12.5471 1.43294 12.7202 1.41622 12.8916 1.43409Z" fill="#C9D1D9" stroke="#C9D1D9" stroke-width="0.5"/>
<path d="M25.5225 10.0259C25.9164 10.0319 26.292 10.1944 26.5664 10.4771C26.8408 10.76 26.9913 11.1407 26.9854 11.5347C26.9794 11.9272 26.8179 12.3006 26.5371 12.5748L26.5381 12.5757L15.6152 23.5513C15.4794 23.6883 15.3177 23.7974 15.1396 23.8716C14.9615 23.9459 14.7702 23.9839 14.5771 23.9839C14.3841 23.9839 14.1928 23.9459 14.0146 23.8716C13.8366 23.7973 13.6749 23.6884 13.5391 23.5513L7.46191 17.4312V17.4302C7.32561 17.2947 7.21656 17.134 7.14258 16.9566C7.06834 16.7785 7.03027 16.5871 7.03027 16.3941C7.03031 16.2011 7.06829 16.0097 7.14258 15.8316C7.21687 15.6535 7.32581 15.4918 7.46289 15.356C7.73858 15.0825 8.11163 14.9293 8.5 14.9293C8.88816 14.9293 9.26051 15.0827 9.53613 15.356L14.5654 20.3443L24.4629 10.4478L24.4648 10.4459C24.7477 10.1714 25.1284 10.0199 25.5225 10.0259ZM20.5762 1.58648C20.8825 1.42046 21.2422 1.38282 21.5762 1.48199C23.537 2.06557 25.3688 3.01754 26.9727 4.28765L27.0693 4.37261C27.1621 4.46198 27.2416 4.56445 27.3047 4.6773C27.3888 4.82779 27.4428 4.99339 27.4629 5.1646C27.483 5.33583 27.4688 5.50946 27.4219 5.67534C27.3749 5.84123 27.2953 5.99611 27.1885 6.1314C27.0816 6.26664 26.9493 6.37935 26.7988 6.46343C26.6483 6.54753 26.4827 6.60153 26.3115 6.62163C26.1404 6.64171 25.9666 6.62755 25.8008 6.58062C25.635 6.53366 25.4799 6.45497 25.3447 6.3482V6.34722C24.0236 5.29734 22.5166 4.50549 20.9033 4.01128H20.8633L20.8281 4.00054C20.4941 3.90137 20.213 3.674 20.0469 3.36773C19.8808 3.06148 19.8433 2.7017 19.9424 2.36773C20.0416 2.03364 20.2698 1.75258 20.5762 1.58648ZM16.7441 0.816946C16.9579 0.776615 17.1784 0.788996 17.3857 0.855032C17.5944 0.921512 17.783 1.03978 17.9346 1.19781H17.9355C18.1434 1.41577 18.2724 1.69569 18.3047 1.99273L18.3125 2.12163V2.12359C18.3135 2.29631 18.2802 2.46759 18.2148 2.62749C18.1495 2.78735 18.0532 2.93262 17.9316 3.05523L17.9219 3.06499C17.7987 3.17653 17.6569 3.26487 17.5039 3.32964L17.5049 3.33159C17.3459 3.40185 17.1738 3.43802 17 3.43804C16.8262 3.43804 16.6541 3.40181 16.4951 3.33159V3.33062C16.3419 3.26594 16.2003 3.1759 16.0771 3.06402L16.0684 3.0562L16.0605 3.04741C15.9481 2.92329 15.8569 2.78091 15.792 2.62652C15.7249 2.46896 15.6896 2.29971 15.6875 2.12847V2.12652C15.6865 1.99152 15.7064 1.85753 15.7461 1.72906L15.792 1.6021C15.8544 1.44395 15.9469 1.29919 16.0645 1.17632L16.0762 1.1646L16.0889 1.15386L16.249 1.02691L16.2559 1.02105L16.2637 1.01519C16.3415 0.961953 16.4263 0.919524 16.5156 0.889212V0.890188C16.5886 0.856626 16.665 0.829989 16.7441 0.815969V0.816946Z" fill="#C9D1D9" stroke="#C9D1D9" stroke-width="0.5"/>
</g>
<defs>
<clipPath id="clip0_41_1969">
<rect width="34" height="34" fill="white"/>
</clipPath>
</defs>
</svg>
